<?xml version='1.0' encoding='utf-8'?>
<!DOCTYPE svg PUBLIC '-//W3C//DTD SVG 1.1//EN' 'http://www.w3.org/Graphics/SVG/1.1/DTD/svg11.dtd'>
<svg version="1.1" xmlns="http://www.w3.org/2000/svg" viewBox="0 0 512 512" xmlns:xlink="http://www.w3.org/1999/xlink" enable-background="new 0 0 512 512">
  <g>
    <g>
      <path d="m460.1,353.4l-70.5,13.5 4.1,20.7 47.2-9-11,16.2c-42.5,52.8-105.7,83.9-174.1,83.9-123.3,0-222.8-99.5-222.8-222.8 0-3.1 0-5.2 0-8.3l-20.7-1c0,3.1 0,6.2 0,9.3 0,134.7 108.8,243.5 243.5,243.5 74.6,0 144-33.2 191.7-92.2l9.4-14.3 8.2,43.3 20.7-4.1-13.5-70.5c-0.8-5.1-5.9-9.2-12.2-8.2z"/>
      <path d="m256,12.5c-74.6,0-144,33.2-191.7,92.2l-8.4,12.8-8.1-42.9-20.8,4.2 12.4,70.5c1,5.2 6.3,9.3 13.5,8.3l70.5-13.5-4.1-20.7-47.6,9 10.3-15.2c42.4-52.9 105.6-84 174-84 123.3,0 222.8,99.5 222.8,222.8 0,3.1 0,5.2 0,8.3l20.7,1c0-3.1 0-6.2 0-9.3 0-134.7-108.8-243.5-243.5-243.5z"/>
      <rect width="20.7" x="137.9" y="155.5" height="200"/>
      <rect width="20.7" x="209.4" y="222.8" height="133.7"/>
      <rect width="20.7" x="281.9" y="189.7" height="166.8"/>
      <rect width="20.7" x="353.4" y="222.8" height="133.7"/>
    </g>
  </g>
</svg>
